REM DIRINDEX 1\5,1\2\6,1\2\7,1\3\8,1\3\9,1\3\10,1\3\11,1\4\12,1\4\13,1\4\14
REM DIRNAME cjc042,folder01,folder02,folder03,folder04,folder05,folder06,folder07,folder08,folder09,folder10,folder11,folder12,folder13
TITLE ""
FILE "4Q_h_001-016.mp3" MP3
  TRACK 01 AUDIO
    TITLE "5:cjc042_0001"
    INDEX 01 00:00:00
  TRACK 02 AUDIO
    TITLE "0:"
    INDEX 01 00:02:10
  TRACK 03 AUDIO
    TITLE "12:cjc042_0002"
    INDEX 01 00:02:55
  TRACK 04 AUDIO
    TITLE "0:"
    INDEX 01 00:04:60
  TRACK 05 AUDIO
    TITLE "13:cjc042_0003"
    INDEX 01 00:05:36
  TRACK 06 AUDIO
    TITLE "0:"
    INDEX 01 00:07:39
  TRACK 07 AUDIO
    TITLE "14:cjc042_0004"
    INDEX 01 00:08:17
  TRACK 08 AUDIO
    TITLE "0:"
    INDEX 01 00:10:45
  TRACK 09 AUDIO
    TITLE "12:cjc042_0005"
    INDEX 01 00:11:21
  TRACK 10 AUDIO
    TITLE "0:"
    INDEX 01 00:13:33
  TRACK 11 AUDIO
    TITLE "13:cjc042_0006"
    INDEX 01 00:14:07
  TRACK 12 AUDIO
    TITLE "0:"
    INDEX 01 00:16:18
  TRACK 13 AUDIO
    TITLE "14:cjc042_0007"
    INDEX 01 00:16:71
  TRACK 14 AUDIO
    TITLE "0:"
    INDEX 01 00:19:22
  TRACK 15 AUDIO
    TITLE "12:cjc042_0008"
    INDEX 01 00:19:73
  TRACK 16 AUDIO
    TITLE "0:"
    INDEX 01 00:21:49
  TRACK 17 AUDIO
    TITLE "13:cjc042_0009"
    INDEX 01 00:22:30
  TRACK 18 AUDIO
    TITLE "0:"
    INDEX 01 00:24:04
  TRACK 19 AUDIO
    TITLE "14:cjc042_0010"
    INDEX 01 00:24:59
  TRACK 20 AUDIO
    TITLE "0:"
    INDEX 01 00:27:10
  TRACK 21 AUDIO
    TITLE "12:cjc042_0011"
    INDEX 01 00:27:59
  TRACK 22 AUDIO
    TITLE "0:"
    INDEX 01 00:29:64
  TRACK 23 AUDIO
    TITLE "13:cjc042_0012"
    INDEX 01 00:30:46
  TRACK 24 AUDIO
    TITLE "0:"
    INDEX 01 00:32:52
  TRACK 25 AUDIO
    TITLE "14:cjc042_0013"
    INDEX 01 00:33:32
  TRACK 26 AUDIO
    TITLE "0:"
    INDEX 01 00:36:11
  TRACK 27 AUDIO
    TITLE "12:cjc042_0014"
    INDEX 01 00:36:62
  TRACK 28 AUDIO
    TITLE "0:"
    INDEX 01 00:38:47
  TRACK 29 AUDIO
    TITLE "13:cjc042_0015"
    INDEX 01 00:39:23
  TRACK 30 AUDIO
    TITLE "0:"
    INDEX 01 00:41:08
  TRACK 31 AUDIO
    TITLE "14:cjc042_0016"
    INDEX 01 00:41:61
  TRACK 32 AUDIO
    TITLE "0:"
    INDEX 01 00:43:09
  TRACK 33 AUDIO
    TITLE "12:cjc042_0017"
    INDEX 01 00:43:56
  TRACK 34 AUDIO
    TITLE "0:"
    INDEX 01 00:45:61
  TRACK 35 AUDIO
    TITLE "13:cjc042_0018"
    INDEX 01 00:46:39
  TRACK 36 AUDIO
    TITLE "0:"
    INDEX 01 00:48:44
  TRACK 37 AUDIO
    TITLE "14:cjc042_0019"
    INDEX 01 00:49:20
  TRACK 38 AUDIO
    TITLE "0:"
    INDEX 01 00:51:62
  TRACK 39 AUDIO
    TITLE "12:cjc042_0020"
    INDEX 01 00:52:39
  TRACK 40 AUDIO
    TITLE "0:"
    INDEX 01 00:53:72
  TRACK 41 AUDIO
    TITLE "13:cjc042_0021"
    INDEX 01 00:54:50
  TRACK 42 AUDIO
    TITLE "0:"
    INDEX 01 00:56:04
  TRACK 43 AUDIO
    TITLE "14:cjc042_0022"
    INDEX 01 00:56:57
  TRACK 44 AUDIO
    TITLE "0:"
    INDEX 01 01:00:00
  TRACK 45 AUDIO
    TITLE "12:cjc042_0023"
    INDEX 01 01:00:53
  TRACK 46 AUDIO
    TITLE "0:"
    INDEX 01 01:02:42
  TRACK 47 AUDIO
    TITLE "13:cjc042_0024"
    INDEX 01 01:03:22
  TRACK 48 AUDIO
    TITLE "0:"
    INDEX 01 01:05:13
  TRACK 49 AUDIO
    TITLE "14:cjc042_0025"
    INDEX 01 01:05:68
  TRACK 50 AUDIO
    TITLE "0:"
    INDEX 01 01:07:47
  TRACK 51 AUDIO
    TITLE "12:cjc042_0026"
    INDEX 01 01:08:21
  TRACK 52 AUDIO
    TITLE "0:"
    INDEX 01 01:10:41
  TRACK 53 AUDIO
    TITLE "13:cjc042_0027"
    INDEX 01 01:11:13
  TRACK 54 AUDIO
    TITLE "0:"
    INDEX 01 01:13:32
  TRACK 55 AUDIO
    TITLE "14:cjc042_0028"
    INDEX 01 01:14:06
  TRACK 56 AUDIO
    TITLE "0:"
    INDEX 01 01:16:03
  TRACK 57 AUDIO
    TITLE "12:cjc042_0029"
    INDEX 01 01:16:54
  TRACK 58 AUDIO
    TITLE "0:"
    INDEX 01 01:18:39
  TRACK 59 AUDIO
    TITLE "13:cjc042_0030"
    INDEX 01 01:19:19
  TRACK 60 AUDIO
    TITLE "0:"
    INDEX 01 01:21:04
  TRACK 61 AUDIO
    TITLE "14:cjc042_0031"
    INDEX 01 01:21:59
  TRACK 62 AUDIO
    TITLE "0:"
    INDEX 01 01:24:24
  TRACK 63 AUDIO
    TITLE "12:cjc042_0032"
    INDEX 01 01:25:06
  TRACK 64 AUDIO
    TITLE "0:"
    INDEX 01 01:27:22
  TRACK 65 AUDIO
    TITLE "13:cjc042_0033"
    INDEX 01 01:27:73
  TRACK 66 AUDIO
    TITLE "0:"
    INDEX 01 01:30:13
  TRACK 67 AUDIO
    TITLE "14:cjc042_0034"
    INDEX 01 01:30:62
  TRACK 68 AUDIO
    TITLE "0:"
    INDEX 01 01:33:36
  TRACK 69 AUDIO
    TITLE "12:cjc042_0035"
    INDEX 01 01:34:14
  TRACK 70 AUDIO
    TITLE "0:"
    INDEX 01 01:35:65
  TRACK 71 AUDIO
    TITLE "13:cjc042_0036"
    INDEX 01 01:36:47
  TRACK 72 AUDIO
    TITLE "0:"
    INDEX 01 01:38:22
  TRACK 73 AUDIO
    TITLE "14:cjc042_0037"
    INDEX 01 01:39:04
  TRACK 74 AUDIO
    TITLE "0:"
    INDEX 01 01:40:42
  TRACK 75 AUDIO
    TITLE "12:cjc042_0038"
    INDEX 01 01:41:16
  TRACK 76 AUDIO
    TITLE "0:"
    INDEX 01 01:43:17
  TRACK 77 AUDIO
    TITLE "13:cjc042_0039"
    INDEX 01 01:43:70
  TRACK 78 AUDIO
    TITLE "0:"
    INDEX 01 01:45:71
  TRACK 79 AUDIO
    TITLE "14:cjc042_0040"
    INDEX 01 01:46:49
  TRACK 80 AUDIO
    TITLE "0:"
    INDEX 01 01:48:18
  TRACK 81 AUDIO
    TITLE "12:cjc042_0041"
    INDEX 01 01:48:69
  TRACK 82 AUDIO
    TITLE "0:"
    INDEX 01 01:50:15
  TRACK 83 AUDIO
    TITLE "13:cjc042_0042"
    INDEX 01 01:50:64
  TRACK 84 AUDIO
    TITLE "0:"
    INDEX 01 01:52:10
  TRACK 85 AUDIO
    TITLE "14:cjc042_0043"
    INDEX 01 01:52:63
  TRACK 86 AUDIO
    TITLE "0:"
    INDEX 01 01:54:29
  TRACK 87 AUDIO
    TITLE "12:cjc042_0044"
    INDEX 01 01:55:05
  TRACK 88 AUDIO
    TITLE "0:"
    INDEX 01 01:56:63
  TRACK 89 AUDIO
    TITLE "13:cjc042_0045"
    INDEX 01 01:57:39
  TRACK 90 AUDIO
    TITLE "0:"
    INDEX 01 01:59:20
  TRACK 91 AUDIO
    TITLE "14:cjc042_0046"
    INDEX 01 01:59:71
  TRACK 92 AUDIO
    TITLE "0:"
    INDEX 01 02:01:17
  TRACK 93 AUDIO
    TITLE "12:cjc042_0047"
    INDEX 01 02:01:68
  TRACK 94 AUDIO
    TITLE "0:"
    INDEX 01 02:04:10
  TRACK 95 AUDIO
    TITLE "13:cjc042_0048"
    INDEX 01 02:04:59
  TRACK 96 AUDIO
    TITLE "0:"
    INDEX 01 02:07:00
  TRACK 97 AUDIO
    TITLE "14:cjc042_0049"
    INDEX 01 02:07:51
  TRACK 98 AUDIO
    TITLE "0:"
    INDEX 01 02:11:25
